<?xml version="1.0"?>
<svg xmlns="http://www.w3.org/2000/svg" width="128" height="128" viewBox="0 0 128 128"><g><path d="M33.686,73.947H94.314a1.5,1.5,0,0,0,1.5-1.5V65.419a12.476,12.476,0,0,0-7.1-11.239,9.086,9.086,0,1,0-10.754,0,12.526,12.526,0,0,0-6.175,6.55,9.44,9.44,0,0,0-2.894-2.4,7.282,7.282,0,1,0-9.789,0,9.441,9.441,0,0,0-2.866,2.364,12.523,12.523,0,0,0-6.2-6.621,9.086,9.086,0,1,0-10.754,0,12.476,12.476,0,0,0-7.1,11.239v7.135A1.5,1.5,0,0,0,33.686,73.947ZM77.254,46.873a6.086,6.086,0,1,1,6.23,6.079c-.048,0-.095-.008-.144-.008s-.1.007-.145.008A6.09,6.09,0,0,1,77.254,46.873ZM73.865,65.419a9.481,9.481,0,0,1,9.33-9.467c.049,0,.1.007.145.007s.1-.007.144-.007a9.48,9.48,0,0,1,9.33,9.467v5.528H73.865V65.419ZM64,48.673a4.277,4.277,0,0,1,.106,8.553h-.212A4.277,4.277,0,0,1,64,48.673Zm-.488,11.553h.276c.071,0,.14.01.212.01s.141-.008.212-.01h.275A6.384,6.384,0,0,1,70.865,66.6v4.344H57.135V66.6A6.383,6.383,0,0,1,63.512,60.226ZM38.574,46.766a6.086,6.086,0,1,1,6.231,6.078c-.049,0-.1-.007-.145-.007s-.1.007-.144.007A6.09,6.09,0,0,1,38.574,46.766ZM35.186,65.312a9.482,9.482,0,0,1,9.33-9.468c.048,0,.095.008.144.008s.1-.007.145-.008a9.482,9.482,0,0,1,9.33,9.468v5.635H35.186Z"/><path d="M55.089,36.414l.031.025c4.319,3.35,6.738,5.027,9.147,5.027s4.826-1.691,9.134-5.075l.021-.017c11.334-8.916,10.64-17.662,9.815-21.01a12.241,12.241,0,0,0-9.3-9.394c-3.655-.679-7.194.7-9.944,3.791-3.132-3.215-6.968-4.555-10.752-3.693a11.8,11.8,0,0,0-8.559,9.163C43.935,18.593,43.461,27.38,55.089,36.414ZM47.607,15.88a8.8,8.8,0,0,1,6.3-6.887c3.124-.711,6.391.763,8.966,4.041a1.481,1.481,0,0,0,1.224.572,1.5,1.5,0,0,0,1.187-.642c2.2-3.167,5.08-4.6,8.106-4.045,3.241.6,6.029,3.478,6.937,7.163,1.45,5.884-1.747,12.424-8.77,17.944l-.02.016c-3.817,3-5.722,4.441-7.265,4.444h-.005c-1.536,0-3.451-1.428-7.278-4.4l-.031-.025C46.653,26.075,46.986,18.686,47.607,15.88Z"/><path d="M61.036,28.217a1.5,1.5,0,0,0,2.121,0l7.723-7.723a1.5,1.5,0,1,0-2.121-2.121L62.1,25.035l-2.856-2.856A1.5,1.5,0,1,0,57.12,24.3Z"/><path d="M50.521,90.979,45.38,88.705l-14.1-12.82c-.035-.032-.074-.059-.109-.09-.138-.119-.276-.236-.42-.342l-.037-.025A6.491,6.491,0,0,0,26.3,74.21L24.659,58.555a6.567,6.567,0,0,0-13.1.686V85.072a16.107,16.107,0,0,0,5.32,11.95L28.625,107.6a7.7,7.7,0,0,1,2.548,5.72V120.7a1.5,1.5,0,0,0,1.5,1.5H58.019a1.5,1.5,0,0,0,1.5-1.5V104.776A15.073,15.073,0,0,0,50.521,90.979Zm6,28.218H34.173V113.32a10.7,10.7,0,0,0-3.542-7.951L18.888,94.794a13.107,13.107,0,0,1-4.328-9.722V59.241a3.567,3.567,0,0,1,7.115-.374l1.71,16.341a6.61,6.61,0,0,0-1.164.939,6.531,6.531,0,0,0,.095,9.239L35.351,98.151a1.5,1.5,0,1,0,2.1-2.142L24.415,83.242a3.53,3.53,0,0,1,1.641-5.955c.093-.023.187-.035.281-.05s.192-.028.288-.035.2-.012.308-.01.181.009.271.017a3.641,3.641,0,0,1,.415.061,3.57,3.57,0,0,1,.388.1c.082.027.162.064.242.1a3.628,3.628,0,0,1,.333.16c.065.035.13.071.193.111a3.609,3.609,0,0,1,.491.365l14.28,12.988c.008.007.018.008.025.015a1.529,1.529,0,0,0,.373.244l5.368,2.373a12.075,12.075,0,0,1,7.207,11.052Z"/><path d="M114.519,54.6a6.571,6.571,0,0,0-11.178,3.959L101.7,74.21a6.5,6.5,0,0,0-4.986,1.676L82.62,88.705l-5.139,2.273a15.075,15.075,0,0,0-9,13.8V120.7a1.5,1.5,0,0,0,1.5,1.5H95.327a1.5,1.5,0,0,0,1.5-1.5V113.32a7.7,7.7,0,0,1,2.55-5.722L111.12,97.022a16.107,16.107,0,0,0,5.32-11.95V59.241A6.523,6.523,0,0,0,114.519,54.6ZM113.44,85.072a13.107,13.107,0,0,1-4.328,9.722L97.371,105.367a10.706,10.706,0,0,0-3.544,7.953V119.2H71.481V104.776a12.075,12.075,0,0,1,7.21-11.053l5.365-2.372a1.523,1.523,0,0,0,.372-.244c.008-.006.018-.008.026-.015l3.8-3.456,10.48-9.531.024-.018a3.647,3.647,0,0,1,.465-.347c.064-.04.13-.077.2-.113a3.645,3.645,0,0,1,.334-.16c.079-.033.156-.068.237-.095a3.591,3.591,0,0,1,.453-.118c.11-.021.222-.033.334-.044s.2-.018.3-.019.193,0,.29.01.208.021.311.038c.088.014.177.025.264.046a3.531,3.531,0,0,1,1.644,5.958L90.55,96.009a1.5,1.5,0,1,0,2.1,2.142l13.034-12.764a6.531,6.531,0,0,0,.1-9.24,6.61,6.61,0,0,0-1.164-.939l1.71-16.341a3.567,3.567,0,0,1,7.115.374Z"/></g></svg>
