<svg id="Layer_1" viewBox="0 0 512 512" xmlns="http://www.w3.org/2000/svg" data-name="Layer 1"><path d="m364.41 34.224v27.322c5.808-2.325 8.632-5.23 18.446-5.23a34.513 34.513 0 0 1 0 69.025c-9.817 0-12.641-2.907-18.446-5.23v27.546h36.91a8 8 0 0 1 8 8c0 15.8-6.628 17.17-6.628 26.48 0 16.445 19.975 24.72 31.6 13.091a18.456 18.456 0 0 0 5.422-13.091c0-9.31-6.628-10.681-6.628-26.48a8 8 0 0 1 8-8h36.743a121.649 121.649 0 0 0 -113.419-113.433zm-243.91 217.947h36.833a8 8 0 0 1 8 8v11.535a105.358 105.358 0 0 1 26.593 11.012l8.154-8.154a8 8 0 0 1 11.313 0l26.045 26.045a8 8 0 0 1 0 11.313l-8.154 8.154a105.343 105.343 0 0 1 11.012 26.593h11.535a8 8 0 0 1 8 8v36.831a8 8 0 0 1 -8 8h-11.537a105.324 105.324 0 0 1 -11.013 26.6l8.155 8.154a8 8 0 0 1 0 11.313l-4.43 4.43a24.96 24.96 0 0 0 12.955 3.458h64.459a24.829 24.829 0 0 0 24.734-24.734v-24.74h-56.863a8 8 0 1 1 0-16h57.172c4.624-59.371 60.009-80.587 64.256-146.257h-27.319c2.324 5.806 5.231 8.629 5.231 18.446a34.513 34.513 0 0 1 -69.026 0c0-9.817 2.907-12.64 5.231-18.446h-35.545a8 8 0 0 1 -8-8.067 8.141 8.141 0 0 1 .068-1.042v-43.867a8 8 0 0 1 8-8c15.8 0 17.17 6.628 26.479 6.628 16.447 0 24.72-19.975 13.091-31.6a18.458 18.458 0 0 0 -13.091-5.421c-9.309 0-10.681 6.627-26.479 6.627a8 8 0 0 1 -8-8v-36.654a121.594 121.594 0 0 0 -113.59 121.33 8 8 0 1 1 -16 0 137.592 137.592 0 0 1 137.59-137.59 8 8 0 0 1 8 8v35.523c5.8-2.291 8.586-5.24 18.479-5.24a34.513 34.513 0 0 1 0 69.025c-9.893 0-12.678-2.95-18.479-5.24v27.589h36.876v.032a7.969 7.969 0 0 1 7.969 7.968c-.006 15.855-6.6 17.137-6.6 26.446 0 16.447 19.975 24.72 31.6 13.091a18.456 18.456 0 0 0 5.422-13.091c0-9.172-6.628-10.944-6.628-26.446a8 8 0 0 1 8-8h44.943v.032a7.969 7.969 0 0 1 7.969 7.968c-.019 81.217-64.763 101.479-64.763 162.257v32.734a40.866 40.866 0 0 1 -33.084 40.009c-4.129 14.475-20.338 25.275-39.704 25.275-17.2 0-35.127-9.15-39.706-25.2a41.165 41.165 0 0 1 -17.123-7.336l-10.139 10.139a8 8 0 0 1 -11.313 0l-8.154-8.155a105.324 105.324 0 0 1 -26.593 11.013v11.539a8 8 0 0 1 -8 8h-36.831a8 8 0 0 1 -8-8v-11.535a105.324 105.324 0 0 1 -26.593-11.013l-8.154 8.155a8 8 0 0 1 -11.313 0l-26.047-26.045a8 8 0 0 1 0-11.313l8.155-8.154a105.324 105.324 0 0 1 -11.013-26.595h-11.535a8 8 0 0 1 -8-8v-36.831a8 8 0 0 1 8-8h11.535a105.361 105.361 0 0 1 11.013-26.593l-8.155-8.154a8 8 0 0 1 0-11.313l26.045-26.045a8 8 0 0 1 11.313 0l8.154 8.154a105.321 105.321 0 0 1 26.595-11.012v-11.535a8 8 0 0 1 8-8zm28.833 16h-20.833v9.907h-.013a7.989 7.989 0 0 1 -6.487 7.844c-10.978 2.107-23.409 6.976-32.471 13.383a8 8 0 0 1 -10.426-.766l-7.007-7.006-14.734 14.732 7.006 7.007a7.994 7.994 0 0 1 .974 10.12 87.521 87.521 0 0 0 -13.5 32.33 8 8 0 0 1 -7.93 6.942h-9.912v20.836h9.907v.013a7.989 7.989 0 0 1 7.844 6.487c2.107 10.977 6.976 23.409 13.383 32.471a8 8 0 0 1 -.766 10.426l-7.006 7.007 14.732 14.732 7.007-7.006a7.994 7.994 0 0 1 10.12-.974 87.539 87.539 0 0 0 32.33 13.5 8 8 0 0 1 6.942 7.93v9.914h20.833v-9.907h.014a7.987 7.987 0 0 1 6.486-7.844c10.978-2.107 23.409-6.976 32.471-13.383a8 8 0 0 1 10.426.766l7.007 7.006 14.732-14.732-7.006-7.007a7.994 7.994 0 0 1 -.974-10.12 87.521 87.521 0 0 0 13.5-32.33 8 8 0 0 1 7.93-6.942h9.907v-20.838h-9.907v-.014a7.988 7.988 0 0 1 -7.844-6.486c-2.106-10.977-6.976-23.41-13.383-32.471a8 8 0 0 1 .766-10.426l7.006-7.007-14.732-14.732-7.007 7.006a7.994 7.994 0 0 1 -10.12.974 87.526 87.526 0 0 0 -32.329-13.5 8 8 0 0 1 -6.943-7.93v-9.907zm-10.416 55.582a49.333 49.333 0 1 0 49.332 49.332 49.331 49.331 0 0 0 -49.332-49.332zm-46.2 3.136a65.332 65.332 0 1 0 92.393 0 65.33 65.33 0 0 0 -92.393 0zm129.683-271.189a7.99 7.99 0 0 1 15.438-4.125l5.509 20.56a7.99 7.99 0 1 1 -15.438 4.125zm-81.486 51.831 15.051 15.051a8 8 0 1 0 11.313-11.313l-15.048-15.053a8 8 0 0 0 -11.313 11.313zm-44.64 85.609 20.56 5.509a7.989 7.989 0 1 0 4.125-15.437l-20.559-5.512a7.99 7.99 0 0 0 -4.125 15.438zm160.526 276.31c9.718 11.548 33.938 11.214 43.211 0zm91.61-398.506v-44.944a7.994 7.994 0 0 1 8.133-8v.031a137.484 137.484 0 0 1 137.457 137.626 8 8 0 0 1 -8 8h-35.522c2.289 5.8 5.24 8.585 5.24 18.48a34.513 34.513 0 0 1 -69.026 0c0-9.9 2.951-12.679 5.241-18.48h-35.523a8 8 0 0 1 -8-8v-44.943h.031a7.969 7.969 0 0 1 7.969-7.969c15.857.006 17.136 6.6 26.446 6.6 16.445 0 24.721-19.973 13.091-31.6a18.455 18.455 0 0 0 -13.091-5.422c-9.171 0-10.945 6.628-26.446 6.628a8 8 0 0 1 -8-8.007z" fill-rule="evenodd"/></svg>