<svg viewBox="0 0 512 512" xmlns="http://www.w3.org/2000/svg"><g id="b" fill="#d4d4d4"><path d="m388.09 328.1c32.41 23.87 53.39 62.61 55.65 102.8.29 5.15.68 11.11 4.86 14.13 5.1 3.68 12.24.53 17.27-3.24 5.29-3.96 10.09-8.58 14.26-13.72 2.7-3.33 5.25-7.28 4.85-11.55-.39-4.22-3.53-7.59-6.5-10.61-24.9-25.32-49.79-50.65-74.69-75.97-2.25-2.28-4.55-4.61-7.42-6.03s-6.47-1.78-8.28 4.19z"/><path d="m247.24 85.49c32.24 16.76 56.07 48.85 62.8 84.55s-3.79 74.26-27.71 101.61c-8.82 10.09-19.38 18.76-26.71 29.97-1.84 2.81-3.51 6.29-2.28 9.42 1.05 2.69 4.04 4.23 6.93 4.37s5.69-.87 8.36-1.98c15.84-6.59 29.67-17.26 42.21-28.96 12.91-12.04 24.82-25.53 32.43-41.45 15.16-31.72 11.03-71.05-7.82-100.73s-51.11-49.71-88.21-56.8z"/><path d="m141.49 85.88c-23.1 14.83-40.04 38.28-49.29 64.13-9.24 25.85-11.1 53.98-7.89 81.25 5.79 49.23 30.54 98.79 74.2 122.26 26.55 14.28 57.85 17.82 87.87 15.06 15.48-1.42 31.08-4.54 44.7-12.03s25.12-19.82 28.92-34.89c-20.72 18.14-48.51 27.07-76.03 27.89-42.34 1.27-84.89-16.45-113.81-47.4s-43.71-74.61-39.56-116.77c4.15-42.15 27.16-82.09 50.88-99.5z"/><path d="m291.26 359.97c11.98-12.12 25.04-23.18 38.98-33 3.48-2.45 7.36-4.93 11.61-4.68 9.39.56 13.53 13.33 22.57 15.92-4.62 6.84-9.24 13.68-13.86 20.52 1.74 1.29 3.49 2.58 5.23 3.86-2.71.2-5.41.4-8.12.6 20.09 28.43 44.95 53.12 70.16 77.13 8.18 7.79 17.05 15.86 28.14 18.02s24.65-4.44 25.6-15.7c-5.15 6.62-14.36 9.67-22.53 7.75-8.67-2.04-15.3-8.82-21.41-15.29-20.11-21.28-40.22-42.55-60.33-63.83-3.51-3.71-7.17-7.72-8.1-12.74-1.63-8.81 5.55-16.56 12.13-22.64-12.47-6.86-22.62-17.85-28.48-30.82-15.92 14.04-34.26 25.33-51.58 54.89z"/><path d="m88.11 420.05c-.19-2.05-2.59-3.4-4.6-2.95s-3.5 2.25-4.17 4.21-.64 4.06-.6 6.13c.17 9.91.46 19.83 1.64 29.67.23 1.95.52 3.96 1.55 5.64s2.98 2.95 4.91 2.57c1.68-.33 2.95-1.82 3.5-3.45s.51-3.38.46-5.1c-.32-12.3-1.57-24.47-2.68-36.72z"/><path d="m127.13 392.8c-.58-2.83-1.73-5.55-3.34-7.94-1.9.69-3.22 2.49-3.85 4.42s-.65 3.98-.68 6c-.23 20.2-.46 40.43 1.1 60.58.14 1.81.32 3.71 1.33 5.21s3.13 2.43 4.7 1.52c1.37-.8 1.77-2.57 2.02-4.14 3.58-22.84 2.74-46.09-1.28-65.65z"/><path d="m167.27 424.68c.14-2.95-.7-5.94-2.34-8.39-3.29-.43-6.39 2.07-7.77 5.08s-1.42 6.45-1.43 9.76c-.04 9.4-.08 18.86 1.57 28.11.27 1.51.6 3.06 1.51 4.3s2.53 2.08 3.99 1.62c1.83-.58 2.55-2.75 2.96-4.63 2.86-13.14 1.08-26.5 1.51-35.86z"/><path d="m206.98 406.44c.4-3.37 0-6.83-1.18-10.01-4.12 2.43-7.44 6.19-9.34 10.59-2.93 6.78-2.41 14.52-1.33 21.83s2.67 14.69 1.7 22.01c-.37 2.8-1.11 5.65-.44 8.39s3.44 5.25 6.13 4.39c2.8-.9 3.48-4.48 3.69-7.42 1.34-19.03-.63-37.99.77-49.78z"/><path d="m243.95 442.79c-.15-4.15-1.31-8.26-3.36-11.88-2.99.66-4.76 3.74-5.71 6.65-2.23 6.86-1.92 14.28-1.18 21.45.23 2.22.83 4.87 2.94 5.59 1.45.49 3.09-.22 4.1-1.36s1.52-2.64 1.94-4.11c2.35-8.21 2.76-16.97 1.2-25.36"/><path d="m285.65 378.51c-.87-2.29-2.07-4.89-4.45-5.46-2.06-.49-4.2.88-5.27 2.7s-1.33 4-1.54 6.1c-2.43 24.36-2.34 48.94-.41 73.35.15 1.9.33 3.85 1.17 5.56s2.53 3.14 4.44 3.12c1.72-.02 3.26-1.22 4.15-2.69s1.25-3.2 1.57-4.89c4.71-24.61 10.2-51.73.34-77.8z"/><path d="m181.53 205.14c-1.7-2.35-5.63-2.13-7.6 0s-2.19 5.43-1.26 8.18 2.81 5.04 4.71 7.24c9.73 11.27 20.64 21.52 32.51 30.51 1.39 1.05 3.07 2.15 4.75 1.68.96-.27 1.71-1 2.42-1.71 18.78-18.96 37.57-37.91 56.35-56.87 2.83-2.85 5.68-5.74 7.8-9.15s3.46-7.46 2.96-11.44c-.19-1.52-.79-3.18-2.2-3.8-2.11-.92-4.28 1.06-5.75 2.83-16.61 20.06-34.59 38.99-53.76 56.62-2.36 2.17-5.15 4.46-8.34 4.15-2.37-.23-4.34-1.87-6.13-3.43-9.56-8.32-20.02-15.91-26.45-24.79z"/></g><g id="c"><g fill="none" stroke="#383838" stroke-linecap="round" stroke-linejoin="round" stroke-width="10"><path d="m354 357.69 90.63 90.63c5.24 5.23 18.01.92 28.55-9.6 10.54-10.55 14.84-23.34 9.62-28.57l-90.63-90.62-38.16 38.17z"/><path d="m373.08 338.6-34.39-34.37"/><g><path d="m90.22 460.17v-38.82"/><path d="m129.04 460.17v-71.18"/><path d="m167.87 460.17v-38.83"/><path d="m245.52 460.17v-19.41"/><path d="m206.69 460.16v-58.23"/><path d="m284.35 460.16v-84.12"/></g><path d="m90.28 201.33c0-80.37 65.13-145.53 145.52-145.52 80.37 0 145.51 65.15 145.52 145.52 0 80.37-65.16 145.52-145.53 145.51-80.37 0-145.51-65.14-145.51-145.51zm145.51 116.77c64.5 0 116.78-52.28 116.79-116.77 0-64.5-52.29-116.78-116.78-116.78-64.51 0-116.78 52.28-116.78 116.78s52.27 116.77 116.77 116.77z"/><path d="m182.26 205.23 30.88 30.87 67.83-67.83"/></g></g><g id="d" fill="none" stroke="#383838" stroke-linecap="round" stroke-linejoin="round" stroke-width="10"><path d="m390.79 133.66c13.42 29.08 17.39 62.43 11.16 93.84"/><path d="m363.76 94.99c5.59 5.67 10.36 12.15 14.11 19.18"/><path d="m82.91 116.07c-11.18-3.3-21.93-8.04-31.9-14.08"/><path d="m96.18 99.76c-10.14-12.31-19.42-25.31-27.78-38.89.35.75.69 1.5 1.04 2.26"/><path d="m113.47 83.39c-2.29-13.18-2.85-26.66-1.65-39.98"/></g></svg>