<svg id="Layer_1" enable-background="new 0 0 512 512" viewBox="0 0 512 512" xmlns="http://www.w3.org/2000/svg"><path d="m93.09 130.79 13.78 28.54 31.35 4.28c6.69.91 9.16 9.16 4.48 13.63l-22.9 21.94 5.64 31.18c1.16 6.58-5.81 11.57-11.62 8.42v.03l-27.92-15-27.89 15c-5.75 3.09-13.07-1.7-11.54-8.93l5.53-30.7-22.9-21.94c-4.76-4.56-2.18-12.81 4.62-13.66l31.24-4.25 13.78-28.54c2.87-6.04 11.46-5.96 14.35 0zm1.25 39.31-8.45-17.49-8.45 17.49c-1.13 2.32-3.37 4.08-6.12 4.45l-19.25 2.64 14.06 13.44v.03c1.84 1.76 2.81 4.42 2.3 7.14l-3.43 19.13 17.04-9.16c2.3-1.28 5.16-1.36 7.65-.03l17.12 9.18-3.37-18.74c-.62-2.64.11-5.53 2.24-7.57l14.03-13.44-18.99-2.61c-2.67-.26-5.13-1.88-6.38-4.46zm346.22-39.31 13.75 28.54 31.38 4.28c6.69.91 9.16 9.16 4.48 13.63l-22.9 21.94 5.61 31.18c1.19 6.58-5.78 11.57-11.59 8.42l-.03.03-27.89-15-27.89 15c-5.75 3.09-13.07-1.7-11.57-8.93l5.56-30.7-22.9-21.94c-4.76-4.56-2.21-12.81 4.62-13.66l31.21-4.25 13.78-28.54c2.9-6.04 11.49-5.96 14.38 0zm1.25 39.31-8.45-17.49-8.45 17.49c-1.13 2.32-3.37 4.08-6.12 4.45l-19.25 2.64 14.06 13.44-.03.03c1.87 1.76 2.81 4.42 2.32 7.14l-3.46 19.13 17.06-9.16c2.3-1.28 5.16-1.36 7.63-.03l17.15 9.18-3.4-18.74c-.6-2.64.14-5.53 2.24-7.57l14.06-13.44-19.02-2.61c-2.63-.26-5.09-1.88-6.34-4.46zm-174.98-117.95 17.86 36.99 40.68 5.56c6.66.91 9.13 9.16 4.45 13.63l-29.68 28.43 7.31 40.45c1.16 6.58-5.81 11.54-11.62 8.42h-.03l-36.17-19.42-36.17 19.42c-5.75 3.09-13.07-1.7-11.54-8.9l7.2-39.97-29.68-28.43c-4.79-4.56-2.21-12.81 4.59-13.66l40.54-5.53 17.86-36.99c2.92-6.03 11.51-5.95 14.4 0zm5.33 47.77-12.53-25.94-12.53 25.94c-1.13 2.35-3.37 4.08-6.12 4.45l-28.54 3.91 20.81 19.96c1.87 1.79 2.81 4.42 2.32 7.14l-5.13 28.38 25.34-13.58c2.3-1.28 5.16-1.39 7.63-.06l25.43 13.63-5.05-27.98c-.62-2.64.14-5.53 2.24-7.54l20.83-19.96-28.32-3.88c-2.67-.28-5.14-1.87-6.38-4.47zm-24.21 233.94h23.36c11.28 0 20.52 9.21 20.52 20.52v24.63l78.07-14.71c5.95-1.13 10.15-6.18 10.15-12.3v-54.14c0-6.86-5.61-12.5-12.5-12.5h-215.84c-6.89 0-12.5 5.64-12.5 12.5v54.14c0 6.12 4.2 11.17 10.18 12.3l78.07 14.71v-24.63c-.01-11.31 9.21-20.52 20.49-20.52zm43.88 61.4v5.81c0 11.31-9.21 20.52-20.52 20.52h-23.36c-11.28 0-20.49-9.21-20.49-20.52v-5.81l-81.01-15.28c-.54-.08-1.05-.2-1.56-.34v55.7c0 9.04 7.43 16.5 16.5 16.5h196.53c9.04 0 16.47-7.46 16.47-16.5v-55.7c-.51.14-1.02.26-1.56.34zm-20.52-45.41h-23.36c-2.47 0-4.51 2.07-4.51 4.54v46.69c0 2.47 2.04 4.51 4.51 4.51h23.36c2.47 0 4.51-2.04 4.51-4.51v-46.69c-.01-2.47-2.05-4.54-4.51-4.54zm-142.44 19.27c-3.57-4.79-5.67-10.72-5.67-17.12v-54.14c0-15.7 12.81-28.49 28.52-28.49h66.42v-21.74c0-9.35 7.74-17.12 17.12-17.12h48.78c9.38 0 17.09 7.74 17.09 17.12v21.74h66.42c15.73 0 28.52 12.78 28.52 28.49v54.14c0 6.41-2.1 12.33-5.67 17.12v66.22c0 17.89-14.63 32.48-32.49 32.48h-196.53c-17.89 0-32.51-14.6-32.51-32.48zm105.25-99.75h51.02l-.08-22.17c-.14-.34-.54-.71-1.02-.71l-49.21.08-.71 1.05z"/></svg>