<svg id="Layer_1" enable-background="new 0 0 512 512" height="512" viewBox="0 0 512 512" width="512" xmlns="http://www.w3.org/2000/svg"><path d="m501.156 328.043c-3.492-10.285-11.818-17.75-23.445-21.019-11.466-3.223-26.092-2.522-43.516 2.055-26.948-8.211-62.408-12.934-100.766-13.447l-.001-54.191c29.719 4.541 60.05-1.117 86.265-16.253 31.351-18.101 53.479-47.415 62.308-82.543.922-3.667-1.235-7.404-4.873-8.439-32.816-9.34-73.104-4.357-102.637 12.695-19.096 11.026-31.907 24.893-41.065 38.6l-.001-32.989c.272-.404.547-.812.833-1.236 10.095-14.957 26.99-39.99 28.851-64.627 1.888-24.992-10.894-55.404-31.805-75.676-2.716-2.632-7.03-2.632-9.745 0-20.193 19.579-33.273 50.65-31.808 75.561 1.313 22.329 14.388 42.381 25.923 60.073 1.286 1.973 2.534 3.896 3.751 5.793l.001 32.886c-9.17-13.872-21.763-27.451-40.698-38.383-29.534-17.05-69.823-22.03-102.639-12.689-3.637 1.035-5.794 4.772-4.872 8.439 8.832 35.127 30.962 64.44 62.312 82.54 20.335 11.739 43.143 17.78 66.224 17.78 6.552 0 13.128-.493 19.674-1.474l.001 54.138c-22.086.306-43.772 2.052-63.218 5.102l-2.239-.598c-46.111-32.255-70.804-22.958-107.111-5.171-20.033 9.813-40.388 19.479-61.138 29.281l-1.63-3.705c-4.779-10.864-17.508-15.825-28.378-11.056l-33.794 14.824c-5.297 2.324-9.362 6.549-11.447 11.899-2.084 5.35-1.949 11.212.38 16.508l60.444 137.41c3.545 8.06 11.465 12.869 19.757 12.869 2.884 0 5.815-.583 8.621-1.813l33.794-14.824c5.297-2.324 9.363-6.55 11.447-11.899 2.084-5.35 1.949-11.212-.38-16.507l-5.899-13.41 30.158-14.69c8.082-3.937 16.209-4.638 24.846-2.135l70.904 20.53c5.216 1.511 10.604 2.157 16.071 2.157 18.878-.001 38.661-7.715 55.288-14.2 1.464-.571 137.31-53.041 137.31-53.041 21.59-8.337 34.908-34.611 27.942-55.125zm-119.664-169.017c24.014-13.865 57.308-18.817 85.022-13.022-8.911 28.41-27.82 52.049-53.82 67.061-23.342 13.477-50.334 18.556-76.797 14.594l59.92-34.597c3.348-1.933 4.495-6.214 2.562-9.562-1.933-3.349-6.214-4.495-9.562-2.562l-54.46 31.444c8.736-18.353 21.456-38.53 47.135-53.356zm-77.764-73.313c-1.124-19.11 8.037-42.685 22.721-59.555 15.169 17.221 24.144 40.329 22.701 59.438-1.037 13.72-8.353 28.758-15.725 41.128l-.001-43.541c0-3.866-3.134-7-7-7s-7 3.134-7 7l.001 43.28c-7.903-12.911-14.875-26.768-15.697-40.75zm-63.198 127.357c-26.001-15.011-44.912-38.649-53.824-67.059 27.715-5.797 61.008-.846 85.022 13.017 25.274 14.591 37.64 34.097 46.773 53.355l-54.462-31.442c-3.348-1.934-7.629-.787-9.562 2.562-1.933 3.348-.786 7.629 2.562 9.562l60 34.64c-26.371 3.884-53.252-1.209-76.509-14.635zm85.899 96.514c29.073 0 57.328 2.593 80.988 7.29l-66.649 19.606c-.362-.731-.75-1.454-1.162-2.167-4.982-8.614-12.99-14.764-22.549-17.318l-23.565-6.296c10.755-.734 21.814-1.115 32.937-1.115zm-194.556 159.798c-.726 1.863-2.156 3.34-4.026 4.161l-33.794 14.824c-3.804 1.669-8.265-.066-9.938-3.872l-60.445-137.41c-.822-1.87-.875-3.926-.15-5.789.726-1.862 2.155-3.34 4.026-4.161l33.794-14.824c.983-.431 2.009-.635 3.02-.635 2.903 0 5.678 1.685 6.919 4.507l60.444 137.41c.822 1.871.876 3.927.15 5.789zm336.298-99.273s-135.874 52.481-137.353 53.058c-19.472 7.594-43.706 17.044-62.378 11.639l-70.904-20.53c-11.953-3.461-23.686-2.453-34.872 2.997l-29.667 14.451-41.635-94.651c20.916-9.88 41.435-19.622 61.658-29.529 33.859-16.589 53.414-23.91 93.896 4.753.678.48 1.436.835 2.238 1.05l64.289 17.175c5.946 1.589 10.933 5.425 14.043 10.801 3.109 5.377 3.947 11.613 2.359 17.559s-5.425 10.933-10.802 14.042c-5.376 3.11-11.613 3.947-17.559 2.359l-85.438-22.825c-3.733-.999-7.572 1.221-8.569 4.956-.998 3.735 1.221 7.572 4.956 8.569l85.438 22.825c9.559 2.555 19.567 1.217 28.181-3.765s14.765-12.99 17.318-22.548c1.106-4.141 1.482-8.365 1.148-12.525l88.892-26.149c29.335-8.629 49.703-5.367 54.488 8.725 4.538 13.359-5.234 31.966-19.727 37.563z"/></svg>