<svg id="Layer_1" enable-background="new 0 0 512 512" viewBox="0 0 512 512" xmlns="http://www.w3.org/2000/svg"><path d="m393.18 118.78-42.29 33.31-42.29-33.31c-2.6-2.05-6.38-1.6-8.43 1s-1.6 6.38 1 8.43l8.89 7c-2.5 4.13-3.83 8.87-3.83 13.83 0 14.78 12.02 26.8 26.8 26.8 6.64 0 12.99-2.52 17.85-6.84 4.86 4.32 11.21 6.84 17.85 6.84 14.78 0 26.8-12.02 26.8-26.8 0-4.96-1.33-9.7-3.83-13.83l8.89-7c2.6-2.05 3.05-5.82 1-8.43-2.03-2.6-5.8-3.05-8.41-1zm-74.94 30.25c0-2.21.5-4.34 1.41-6.28l22.65 17.84c-2.58 2.08-5.81 3.24-9.26 3.24-8.16.01-14.8-6.63-14.8-14.8zm65.31 0c0 8.16-6.64 14.8-14.8 14.8-3.45 0-6.68-1.17-9.26-3.24l22.65-17.84c.91 1.94 1.41 4.07 1.41 6.28zm70.08 3.64c2.62 9.28 11.16 16.1 21.27 16.1 12.19 0 22.1-9.91 22.1-22.1s-9.92-22.1-22.1-22.1c-10.11 0-18.65 6.82-21.27 16.1h-21.66c-1.13-15.4-6.56-29.62-15.11-41.47h40.01c3.31 0 6-2.69 6-6v-26.32c9.38-2.55 16.3-11.14 16.3-21.32 0-12.19-9.91-22.1-22.1-22.1s-22.1 9.91-22.1 22.1c0 10.03 6.72 18.52 15.9 21.21v20.43h-44.59c-14.53-13.54-34-21.86-55.39-21.86s-40.86 8.31-55.39 21.86h-44.59v-20.44c9.18-2.69 15.9-11.18 15.9-21.21 0-12.19-9.92-22.1-22.1-22.1s-22.1 9.91-22.1 22.1c0 10.18 6.92 18.77 16.3 21.32v26.33c0 3.31 2.69 6 6 6h40.01c-8.55 11.84-13.98 26.06-15.11 41.47h-21.66c-2.62-9.28-11.16-16.1-21.27-16.1-9.99 0-18.44 6.66-21.17 15.77h-168.71c-12.13 0-22 9.87-22 22v237.86c0 12.13 9.87 22 22 22h118.02l-6.31 31.59h-8.33c-9.58 0-17.38 7.8-17.38 17.38s7.8 17.38 17.38 17.38h137.9c9.58 0 17.38-7.8 17.38-17.38s-7.8-17.38-17.38-17.38h-8.33l-6.31-31.59h118.02c12.13 0 22-9.87 22-22v-163.97c4.04-3.66 6.59-8.92 6.59-14.78v-15.31h40.63v20.44c-9.18 2.69-15.9 11.18-15.9 21.21 0 12.19 9.92 22.1 22.1 22.1s22.1-9.91 22.1-22.1c0-10.18-6.92-18.77-16.3-21.32v-26.32c0-3.31-2.69-6-6-6h-39.94c8.77-12.14 13.96-26.4 15.05-41.47h21.64zm21.27-16.11c5.57 0 10.1 4.53 10.1 10.1s-4.53 10.1-10.1 10.1-10.1-4.53-10.1-10.1 4.53-10.1 10.1-10.1zm-27.93-91.01c0-5.57 4.53-10.1 10.1-10.1s10.1 4.53 10.1 10.1-4.53 10.1-10.1 10.1-10.1-4.53-10.1-10.1zm-212.36 0c0-5.57 4.53-10.1 10.1-10.1s10.1 4.53 10.1 10.1-4.53 10.1-10.1 10.1-10.1-4.53-10.1-10.1zm232.56 202.23c0 5.57-4.53 10.1-10.1 10.1s-10.1-4.53-10.1-10.1 4.53-10.1 10.1-10.1 10.1 4.53 10.1 10.1zm-240.29-111.22c5.57 0 10.1 4.53 10.1 10.1s-4.53 10.1-10.1 10.1-10.1-4.53-10.1-10.1 4.54-10.1 10.1-10.1zm56.78 334.61c0 2.97-2.42 5.38-5.38 5.38h-137.9c-2.97 0-5.38-2.42-5.38-5.38 0-2.97 2.42-5.38 5.38-5.38h137.9c2.96-.01 5.38 2.41 5.38 5.38zm-25.96-17.39h-96.75l6.31-31.59h84.13zm123.95-43.59h-344.65c-5.51 0-10-4.49-10-10v-7.81h364.65v7.81c0 5.51-4.49 10-10 10zm10-29.81h-364.65v-218.05c0-5.51 4.49-10 10-10h168.52c2.51 9.45 11.13 16.43 21.36 16.43 10.11 0 18.65-6.82 21.27-16.1h21.66c.65 8.94 2.74 17.59 6.17 25.69h-75.59c-2.25 0-4.05-.62-5.83-2l-16.76-13.02c-3.86-3-8.3-4.52-13.19-4.52h-55.8c-10.43 0-18.92 8.49-18.92 18.92v54.78 122.15c0 10.6 8.62 19.22 19.22 19.22h200.42c10.6 0 19.22-8.62 19.22-19.22v-113.24h61.51c.47 0 .92-.04 1.38-.07v139.03zm-289.76-147.86c0-3.98 3.24-7.22 7.22-7.22h129.8v1.16c-9.38 2.55-16.3 11.14-16.3 21.32 0 12.19 9.92 22.1 22.1 22.1s22.1-9.91 22.1-22.1c0-10.03-6.72-18.52-15.9-21.21v-1.28h41.01c1.8 9.18 9.9 16.13 19.59 16.13h5.24v113.25c0 3.98-3.24 7.22-7.22 7.22h-200.42c-3.98 0-7.22-3.24-7.22-7.22zm142.82 5.16c5.57 0 10.1 4.53 10.1 10.1s-4.53 10.1-10.1 10.1-10.1-4.53-10.1-10.1 4.53-10.1 10.1-10.1zm46.83-24.39h-40.63v-7.16h40.63zm-46.62-19.16c-3.31 0-6 2.69-6 6v13.16h-129.8c-2.56 0-4.99.51-7.22 1.42v-36.97c0-3.81 3.1-6.92 6.92-6.92h55.8c2.25 0 4.05.62 5.83 2l16.76 13.02c3.86 3 8.3 4.52 13.19 4.52h81.89c.82 1.28 1.69 2.54 2.58 3.78h-39.95zm155.07 1.48c-1.12 1.12-1.75 2.65-1.75 4.24v21.61c0 4.4-3.58 7.97-7.97 7.97h-6.1v-24.18c0-3.31-2.69-6-6-6s-6 2.69-6 6v24.18h-15.28v-24.18c0-3.31-2.69-6-6-6s-6 2.69-6 6v24.18h-15.28v-24.18c0-3.31-2.69-6-6-6s-6 2.69-6 6v24.18h-6.09c-4.4 0-7.97-3.58-7.97-7.97v-21.61c0-1.59-.63-3.11-1.75-4.24-13.04-13.08-20.22-30.46-20.22-48.94 0-38.23 31.1-69.32 69.32-69.32s69.32 31.1 69.32 69.32c0 18.47-7.19 35.85-20.23 48.94z"/></svg>