<svg id="Layer_1" height="512" viewBox="0 0 64 64" width="512" xmlns="http://www.w3.org/2000/svg" data-name="Layer 1"><path d="m21.16 16.21a2 2 0 0 0 .2 1.52l1.64 2.78a2 2 0 0 0 1.22.93 2 2 0 0 0 1.52-.2l.61-.31a9.94 9.94 0 0 0 2.13 1.23v.67a2 2 0 0 0 2 2h3.21a2 2 0 0 0 2-2v-.69a9.54 9.54 0 0 0 2.12-1.24l.59.34a2 2 0 0 0 2.73-.73l1.6-2.78a2 2 0 0 0 -.73-2.73l-.58-.31a9.07 9.07 0 0 0 .09-1.28 8.55 8.55 0 0 0 -.09-1.25l.58-.33a2 2 0 0 0 .73-2.73l-1.6-2.78a2 2 0 0 0 -2.73-.73l-.62.31a9.54 9.54 0 0 0 -2.13-1.23v-.67a2 2 0 0 0 -2-2h-3.21a2 2 0 0 0 -2 2v.68a10.38 10.38 0 0 0 -2.12 1.24l-.58-.33a2 2 0 0 0 -2.74.73l-1.6 2.77a2 2 0 0 0 -.2 1.52 2 2 0 0 0 .93 1.22l.58.3a11.17 11.17 0 0 0 -.09 1.28 8.59 8.59 0 0 0 .09 1.26l-.58.33a2 2 0 0 0 -.97 1.21zm3.42-2.8a8.4 8.4 0 0 1 .07-1 2 2 0 0 0 -1-2l-.58-.33 1.63-2.76.58.34a2 2 0 0 0 2.25-.17 7.18 7.18 0 0 1 1.65-1 2 2 0 0 0 1.26-1.86v-.63h3.21v.67a2 2 0 0 0 1.26 1.86 7.18 7.18 0 0 1 1.65 1 2 2 0 0 0 2.25.17l.59-.34 1.6 2.74-.58.33a2 2 0 0 0 -1 2 8.4 8.4 0 0 1 .07 1 8.42 8.42 0 0 1 -.07 1 2 2 0 0 0 1 2l.58.33-1.6 2.78-.59-.34a2 2 0 0 0 -2.25.17 7.56 7.56 0 0 1 -1.65 1 2 2 0 0 0 -1.26 1.86v.67h-3.21v-.67a2 2 0 0 0 -1.26-1.86 7.56 7.56 0 0 1 -1.65-1 2.07 2.07 0 0 0 -1.26-.43 2 2 0 0 0 -1 .26l-.58.34-1.61-2.78.58-.33a2 2 0 0 0 1-2 8.42 8.42 0 0 1 -.08-1.02z"/><path d="m32 18.37a5 5 0 1 0 -5-5 5 5 0 0 0 5 5zm0-8a3 3 0 1 1 -3 3 3 3 0 0 1 3-3z"/><path d="m55.23 56.77a9.19 9.19 0 0 1 1.94-5 7.7 7.7 0 0 0 -.76-10.74 8.13 8.13 0 0 0 -6.32-2 7.93 7.93 0 0 0 -7.09 6.97 7.66 7.66 0 0 0 1.84 5.85 9.26 9.26 0 0 1 1.89 5.08v.92a4.23 4.23 0 0 0 8.46 0zm-2 1.08a2.23 2.23 0 0 1 -4.46 0v-.85h4.46zm.24-2.85h-1.47v-3.59l1.71-1.7-1.42-1.42-1.29 1.3-1.29-1.3-1.42 1.42 1.71 1.7v3.59h-1.49a11.16 11.16 0 0 0 -2.12-4.45 5.69 5.69 0 0 1 -1.39-4.34 5.92 5.92 0 0 1 5.31-5.21 5.17 5.17 0 0 1 .69 0 6.1 6.1 0 0 1 4.08 1.55 5.75 5.75 0 0 1 1.92 4.28 5.62 5.62 0 0 1 -1.36 3.68 11.67 11.67 0 0 0 -2.17 4.49z"/><path d="m6.87 61.71a1 1 0 0 0 .7.29h11.43a1 1 0 0 0 1-1v-18a1 1 0 0 0 -1-1h-16a1 1 0 0 0 -1 1v13.5a1 1 0 0 0 .3.71zm.13-2.71-2-1.95 2.45-.49zm-3-15h14v16h-9.21l.9-4.52a1 1 0 0 0 -1.17-1.17l-4.52.9z"/><path d="m6 46h10v2h-10z"/><path d="m6 51h10v2h-10z"/><path d="m12 56h4v2h-4z"/><path d="m46.58 11.7-1.16 1.62a22.94 22.94 0 0 1 9.38 15.68h-2.8a1 1 0 0 0 -.88.53 1 1 0 0 0 .05 1l4 6a1 1 0 0 0 .83.47 1 1 0 0 0 .83-.44l4-6a1 1 0 0 0 .05-1 1 1 0 0 0 -.88-.56h-3.19a24.91 24.91 0 0 0 -10.23-17.3zm9.42 22.5-2.13-3.2h4.26z"/><path d="m27.73 60.59a1 1 0 0 0 .76.35.76.76 0 0 0 .21 0 1 1 0 0 0 .75-.7l.92-3.27c.56 0 1.1.06 1.63.06a24.75 24.75 0 0 0 10.42-2.27l-.84-1.82a22.7 22.7 0 0 1 -9.58 2.06h-1.07l.7-2.46a1 1 0 0 0 -.27-1 1 1 0 0 0 -1-.23l-6.86 2.19a1 1 0 0 0 -.66.68 1 1 0 0 0 .21.92zm1.47-6.82-1.2 4.1-2.46-2.87z"/><path d="m15.63 20.66a1 1 0 0 0 .62.22 1 1 0 0 0 .41-.09 1 1 0 0 0 .59-.84l.54-7.19a1 1 0 0 0 -.38-.86 1 1 0 0 0 -.93-.16l-6.84 2.26a1 1 0 0 0 -.68.78 1 1 0 0 0 .37 1l2.31 1.81a24.71 24.71 0 0 0 -4.64 14.41 25.18 25.18 0 0 0 1.08 7.29l1.92-.58a22.9 22.9 0 0 1 3.22-19.94zm0-6.55-.29 3.83-3.34-2.63z"/><path d="m60 45h2v2h-2z"/><path d="m58 40h2v2h-2z" transform="matrix(.707 -.707 .707 .707 -11.71 53.73)"/><path d="m40 45h2v2h-2z"/><path d="m43 39h2v2h-2z" transform="matrix(.707 -.707 .707 .707 -15.4 42.83)"/><path d="m50 36h2v2h-2z"/></svg>