<?xml version="1.0" encoding="UTF-8"?>
<svg xmlns="http://www.w3.org/2000/svg" viewBox="0 0 64 64" width="512" height="512"><g id="Magnet_User" data-name="Magnet User"><path d="M50,1A13,13,0,1,0,63,14,13.0147,13.0147,0,0,0,50,1Zm0,24A11,11,0,1,1,61,14,11.0125,11.0125,0,0,1,50,25Z"/><path d="M56.34,18.522a14.2036,14.2036,0,0,0-12.68,0,1,1,0,0,0,.92,1.7763,12.1624,12.1624,0,0,1,10.84,0,1,1,0,0,0,.92-1.7763Z"/><path d="M50,15a5,5,0,1,0-5-5A5.0059,5.0059,0,0,0,50,15Zm0-8a3,3,0,1,1-3,3A3.0033,3.0033,0,0,1,50,7Z"/><path d="M35.707,37.293a1.0292,1.0292,0,0,0-1.414,0l-13.65,13.6508a5.3641,5.3641,0,0,1-7.586-7.5859L26.707,29.707a.9994.9994,0,0,0,0-1.414l-6-6a1.0292,1.0292,0,0,0-1.414,0L5.6426,35.9438a15.8491,15.8491,0,0,0,22.414,22.4141L41.707,44.707a.9994.9994,0,0,0,0-1.414ZM20,24.4141,24.5859,29,22,31.586,17.4141,27Zm6.6426,32.53A13.8494,13.8494,0,1,1,7.0566,37.3579L16,28.4141,20.586,33l-8.9434,8.9437a7.3638,7.3638,0,1,0,10.414,10.4141L31,43.4141,35.586,48ZM37,46.586,32.4141,42,35,39.4141,39.5859,44Z"/><path d="M47.293,36.293l-4,4a1,1,0,0,0,1.414,1.414l4-4a1,1,0,0,0-1.414-1.414Z"/><path d="M47.793,29.793l-7.5,7.5a1,1,0,0,0,1.414,1.414l7.5-7.5a1,1,0,0,0-1.414-1.414Z"/><path d="M38.707,35.707l4-4a1,1,0,0,0-1.414-1.414l-4,4a1,1,0,0,0,1.414,1.414Z"/><path d="M23.707,20.707l4-4a1,1,0,0,0-1.414-1.414l-4,4a1,1,0,0,0,1.414,1.414Z"/><path d="M25.293,23.707a.9994.9994,0,0,0,1.414,0l7.5-7.5a1,1,0,0,0-1.414-1.414l-7.5,7.5A.9994.9994,0,0,0,25.293,23.707Z"/><path d="M32.293,21.293l-4,4a1,1,0,0,0,1.414,1.414l4-4a1,1,0,0,0-1.414-1.414Z"/></g></svg>
