<svg id="Layer_1" viewBox="0 0 512 512" xmlns="http://www.w3.org/2000/svg" data-name="Layer 1"><path d="m317.307 351.814a11.488 11.488 0 0 0 -3.8 7.239h-.016a6.363 6.363 0 0 1 -12.684-.747l.448-65.183c-.733-2.309-3.9-10.132-13.2-9.991s-11.405 5.82-11.793 7.275l.266 98.637c0 .184-.008.366-.023.547l.08 32.642a6.371 6.371 0 0 1 -8.757 6.412c-.1-.038-32.991-13.355-44.381-15.481-7.568-1.412-9.672.281-12.637 5.4-1.784 3.078-.992 9.763.573 10.755l21.273 19.217 38.18 34.718 136.384-.177v-105.02c0-9.943-12.091-15.26-18.093-8.3a14.4 14.4 0 0 0 -3.2 9.351h-.027a6.363 6.363 0 1 1 -12.726 0h-.025c0-7.242-.141-13.277-2.451-17.271-1.56-2.7-4.679-4.107-10.256-4.107v-.024c-7.257.009-11.25 2.891-11.25 11.515h-.025a6.364 6.364 0 0 1 -12.727 0h-.024c0-8.949-1.452-14.853-3.849-17.737-1.69-2.034-4.447-2.584-7.641-2.584a11.434 11.434 0 0 0 -7.621 2.909zm-48.007-121.914a53.66 53.66 0 0 0 40.2-13.315c0-5.733-.691-9.883-3.888-14.669a23.269 23.269 0 0 0 -19.431-10.441h-24.736a23.093 23.093 0 0 0 -15.658 6.058 45.259 45.259 0 0 1 23.513 32.367zm-35.343-23.48a32.28 32.28 0 0 1 23.189 30.9v3.17a71.82 71.82 0 0 1 -96.434.012v-3.182a32.278 32.278 0 0 1 32.167-32.167h32.1a29.882 29.882 0 0 1 8.978 1.265zm-1.274-13.349a36.193 36.193 0 0 1 28.762-14.371h24.732a36.265 36.265 0 0 1 36.094 36.094v4.556h-.018c0 3.421-2.8 5.525-5.406 7.734a66.686 66.686 0 0 1 -46.926 15.664v.488h-.021c0 3.136-1.969 4.683-4.091 6.612a84.61 84.61 0 0 1 -115.583-1.708 6.375 6.375 0 0 1 -2.292-4.9v-5.916a45.057 45.057 0 0 1 44.942-44.942h32.1a44.3 44.3 0 0 1 7.7.691zm41.128-77.222a27.88 27.88 0 1 1 -27.88 27.879 27.882 27.882 0 0 1 27.88-27.879zm10.681 17.2c-9.488-9.487-25.785-2.738-25.785 10.681s16.3 20.169 25.785 10.681a15.107 15.107 0 0 0 0-21.362zm-75.122-16.923a34.282 34.282 0 1 0 34.281 34.281 34.283 34.283 0 0 0 -34.281-34.281zm15.207 19.074c-13.51-13.51-36.714-3.9-36.714 15.208s23.2 28.719 36.714 15.208a21.509 21.509 0 0 0 0-30.416zm39.168 238.187.022 9.268h-158.989v-289.9h246.413v253.621a21.758 21.758 0 0 0 -5.429 2.651c-4.013-9.306-11.273-12.9-20.834-12.9a24.047 24.047 0 0 0 -11.261 2.79l.319-46.611c.012-2.474-5.459-22.216-26.075-21.9-21.35.323-24.287 18.041-24.3 18.092h.023c-.257 1.447.007 44.064.02 49.364h-116.772a6.388 6.388 0 0 0 -6.388 6.388v22.75a6.388 6.388 0 0 0 6.388 6.388zm-.056-22.747.024 9.971h-110.443v-9.971zm-116.807-57.51h78.854a6.388 6.388 0 0 1 6.388 6.388v22.747a6.388 6.388 0 0 1 -6.388 6.387h-78.854a6.388 6.388 0 0 1 -6.388-6.387v-22.748a6.388 6.388 0 0 1 6.388-6.388zm72.466 12.77v9.971h-66.078v-9.971zm-28.032 118.317h5.741a26.356 26.356 0 0 0 .236 2.926c.707 5.12 2.966 9.938 6.753 12.615l7.546 6.862h-66.631a40.319 40.319 0 0 1 -40.183-40.183v-11.007h159.022l.043 17.925c-10.984-4.25-29.4-11.1-38.095-12.719-12.737-2.377-20.048 1.6-25.532 10.806h-8.9a6.388 6.388 0 0 0 0 12.775zm0-362.271a6.388 6.388 0 0 1 0-12.775h40.084a6.388 6.388 0 0 1 0 12.775zm57.7 0a6.388 6.388 0 1 1 0-12.775h15.634a6.388 6.388 0 1 1 0 12.775zm-144.238 18.034h246.413v-11.008a40.319 40.319 0 0 0 -40.183-40.183h-166.047a40.318 40.318 0 0 0 -40.183 40.183zm259.188 6.367v258.753c9.792.816 15.855 5.354 19.07 13 14.464-10.955 36.964.281 36.964 19.957v111.377a6.369 6.369 0 0 1 -6.941 6.364l-144.694.188a6.34 6.34 0 0 1 -4.283-1.657l-.009.01-38.431-34.939h-80.681a53.1 53.1 0 0 1 -52.961-52.963v-337.465a53.1 53.1 0 0 1 52.958-52.958h166.05a53.1 53.1 0 0 1 52.958 52.958z" fill-rule="evenodd"/></svg>